<svg xmlns="http://www.w3.org/2000/svg" viewBox="0 0 453.5 33.43"><defs><style>.cls-1{fill:#000;}</style></defs><g id="Layer_2" data-name="Layer 2"><g id="Layer_1-2" data-name="Layer 1"><path class="cls-1" d="M1.49,30.53H0V14.64H1.49Z"/><path class="cls-1" d="M26.88,30.53h-1.5L15.23,16.93v13.6h-1.5V14.64h1.5L25.4,28.25V14.64h1.48Z"/><path class="cls-1" d="M52,30.53H50.47L40.32,16.93v13.6H38.81V14.64h1.51L50.48,28.25V14.64H52Z"/><path class="cls-1" d="M77,23.45a8.4,8.4,0,0,1-.85,3.85,6,6,0,0,1-2.4,2.56,7.25,7.25,0,0,1-3.62.89,6.56,6.56,0,0,1-5-2,7.46,7.46,0,0,1-1.91-5.38V21.75A8.36,8.36,0,0,1,64,17.9a6,6,0,0,1,2.42-2.58,7.07,7.07,0,0,1,3.6-.9,7.16,7.16,0,0,1,3.59.89,6.05,6.05,0,0,1,2.41,2.5A8.22,8.22,0,0,1,77,21.55Zm-1.5-1.72A6.54,6.54,0,0,0,74,17.23a5,5,0,0,0-4-1.63,5.05,5.05,0,0,0-3.93,1.63,6.63,6.63,0,0,0-1.46,4.56v1.66a6.55,6.55,0,0,0,1.46,4.48A5.59,5.59,0,0,0,74,28a6.72,6.72,0,0,0,1.41-4.54Z"/><path class="cls-1" d="M93.21,28.57l.1.34.11-.34L99,14.64h1.64L94,30.53H92.61L86,14.64h1.63Z"/><path class="cls-1" d="M119.28,26.07h-8l-1.82,4.46h-1.56l6.68-15.89H116l6.68,15.89h-1.55Zm-7.56-1.14h7.08l-3.54-8.65Z"/><path class="cls-1" d="M143.12,15.78h-6.05V30.53h-1.49V15.78h-6V14.64h13.58Z"/><path class="cls-1" d="M155.24,30.53h-1.49V14.64h1.49Z"/><path class="cls-1" d="M180.53,23.45a8.4,8.4,0,0,1-.84,3.85,6,6,0,0,1-2.41,2.56,7.21,7.21,0,0,1-3.61.89,6.6,6.6,0,0,1-5-2,7.46,7.46,0,0,1-1.9-5.38V21.75a8.36,8.36,0,0,1,.85-3.85A6.1,6.1,0,0,1,170,15.32a7.69,7.69,0,0,1,7.2,0,6.05,6.05,0,0,1,2.41,2.5,8.22,8.22,0,0,1,.88,3.74ZM179,21.73a6.54,6.54,0,0,0-1.44-4.5,5.58,5.58,0,0,0-7.88,0,6.63,6.63,0,0,0-1.46,4.56v1.66a6.54,6.54,0,0,0,1.45,4.48,5,5,0,0,0,4,1.65,4.94,4.94,0,0,0,4-1.63A6.68,6.68,0,0,0,179,23.41Z"/><path class="cls-1" d="M204.89,30.53h-1.5l-10.15-13.6v13.6h-1.5V14.64h1.5l10.17,13.61V14.64h1.48Z"/><path class="cls-1" d="M227.94,32.05h-2.32l6.95-19.17h2.32Z"/><path class="cls-1" d="M392.23,25.94a3.62,3.62,0,0,1-1.4.94,2.52,2.52,0,0,1-1.43,0c-.21-.07,0-.36.24-.61a8.24,8.24,0,0,1,1.27-.66,1.62,1.62,0,0,1,1.6-.26c.43.17-.12.46-.28.6Zm58.82-10.6c-1.6-.11-7.26-.25-10.21-.37s-6.77-.61-9.23-.61c-1.35,0-4.06.37-5.17-.37s-5.91-1.35-7.26-1.35S415,11.9,413,11.78s-2.84-1.48-6.16-1.48c-2.82,0-.74,2.71,1.11,3.2s1.84,3.81,2.46,7.15-.86,4.66-1.59,5.4-2.1,2.22-3.21,1.48-.37-1.6,1.48-4.18-1.23-3.08-2.22-2A17,17,0,0,1,401.21,25c-1.6,1-2.75,2.39-5.9,3.32s-2.61-.76.36-2.59c1.66-1,.7-2.9-1.54-2.79s-2.46.62-5,2c-1.69.87-2.25,1.66-2.28,2.66,0,.23.36,1,.42,1.29s-.42.35-.37.56.62.48.66.56a2.59,2.59,0,0,0,2.6,1.39c1.35,0,4.69-1.33,8.5-3.3s3.21-.74,3.82.36,1.35,1.37,3.2.87,1.11.5.61,1.35S406,32,407.49,33.07s1.72-.62,2-1.85,3.7-4.67,4.31-5.67,2.71-1.35,3.44-2.08a2.7,2.7,0,0,0,.38-3.32c-.74-1.23-2.71.74-3.94,1.84s-1.47.13-1.6-1a26,26,0,0,0-1.35-6c-.87-2.21,1.23-1.84,2-1.6s2.71.37,3.82.62,5.29.5,7.38.74,4.07,1,6.65,1l8,1c.74.12,1-.5,1.72-.38s1.23,1,1.85,1.1.61-.24,1.47-.36a21.16,21.16,0,0,1,5.17.86c1.23.37,1.48,1.35,2.46,1.35s1.72-.85,2.22-2.21-.74-1.59-2.34-1.73ZM291,30.23c-2.5.28-1.77,1.21-2.5,1.21s-3.14-.28-1.76-1.77,4.53-5.34,6.28-5.34c1.57,0,2.12,1.47,2.12,2.58s-1.65,3-4.14,3.32Zm-12.12-6.95a5.08,5.08,0,0,1-1.69,1,4.77,4.77,0,0,1-1.3.17c-.26,0-.71.06-.39-.28a2.2,2.2,0,0,1,.64-.49,4.43,4.43,0,0,1,2.53-1.05c.52.08.39.51.21.69Zm-3.95-10.77c1.11-2,1.57-1.93,2.4-2.95,1.24-1.51,5.91-7.22,10.06-7.38,2.31-.09,2,2.21,1.39,3.32s-4.16,5-6.56,6.18a17.25,17.25,0,0,1-5.44,1.94c-1.1.1-2.95.92-1.85-1.11Zm18.46,10.06c-1.75-1-1.39-.82-2.12-.09a8.54,8.54,0,0,1-2.22,2,20.68,20.68,0,0,1-6.55,1.29c-2.12-.08-3.23-.45-1.75-1.56s1.56-3.78-.84-3.68-5.63,1.68-6.51,3.46c-.49.95-.3,1.53-1.85,2.28-1.85.89-4,1.63-5.1,1.35s-2.23-.18-1.85-1.93a29.57,29.57,0,0,1,1.47-4.16,67.27,67.27,0,0,0,5.08-5.17c2-.55,9.14-1.85,12.55-4,4.32-2.68,10-8.35,6.37-11.72-2.58-2.4-8.86,2-10.15,3.41s-8.68,8.78-9.6,9.7c-1.39-.65-4-.9-5.17-2.87s-1.76-2.67-2.77-2c-.63.41-.32,1.4.1,2.5a6.38,6.38,0,0,0,4.23,4c2.78.84,1.29,1.2.75,1.76s-6.47,6-9.14,8.12-7.66,4.42-6.37,6.64c.57,1,2.4-.73,2.95-.91s1.21-.1,1.67-.56,1.75-2.31,3.05-2.4,1.77,1.53,3.13,1.75c1.74.27,9.23-.73,10.62-1.84a14.58,14.58,0,0,0,3.59.45,56.66,56.66,0,0,0,6.65-.91c1.1-.38,1.66.18,1.29.73s-2.12,3-.56,4.43,6.66,0,8.49-1,4.35-3.32,4.35-4.62-2-3.41-3.79-4.43Zm31.52-7.09c-7.94-.29-1.75-2.32.74-4.07,1.32-.94,2.77-2.13,3.6-2.13s1.66.28,1.57,3.23-4.15,3-5.91,3Zm2.49,5.8a7,7,0,0,1-1.48,3.14c-1.29.09-4.51-.74-6.28-.83a37,37,0,0,0-4.51,0c-.92.09-1.11-.74-.65-1.47A28.15,28.15,0,0,1,317.87,18a21.57,21.57,0,0,1,2.95.28c1.48.16,3.42.09,4.43.19,1,.63,2.31,1.65,2.13,2.85Zm-4.16,6.09c-1.29,1.39-5.91,4-7.93,3.79s-3.78-3-2.31-5.73c2,0,3.33-.08,4.43-.08a41,41,0,0,1,5.73.45c1.75.37,1.3.28.08,1.57Zm62.31,2.22c-.55.08-.74-.92-.65-1.76s1.11-2.11-1.29-2.58-4.8,3.13-5.91,2.77.65-3.23-.74-3.32-3.87,1.38-5.26,2.3-5.72,2.77-6.83,2.49-.92-1.66-.92-2.12.28.38.37-1.1-1.47-1.76-2.31-1.94c-.6-.13-1.27-.79-1.57.37a2,2,0,0,1-.65,1.2c-.36.37-2.3,1.85-3.59,2.77s-4.8,2.58-6.28,2.21-2-1.57-1-3.69-1.11-2.31-3.22,0c-.84.92-3.33,1.53-5.36,2.48-1.42.69-2.7,0-1-1.37a19.78,19.78,0,0,0,2.31-2.5,1.32,1.32,0,0,0-.46-2.12c-1-.36-1.19,0-1.85.56a3,3,0,0,1-2.12.46c-.65,0-5.53.09-6.73.09s-1.11-1.11-1.11-1.47a5.13,5.13,0,0,0,0-3.79c-.83-2.31.73-2.12,1.66-2.67s3-1.38,3.23-4.26S332.82,7.11,330.7,7c-2.77-.19-5.26,1.75-6.83,2.76s-5.35,3.32-6.56,4.62c-1.19-.09-3.68,0-4.23.37s-.74,1.95-.1,1.95.37,1-.18,1.37-1.94,2.31-3.05,3.33a21.69,21.69,0,0,0-3.69,5.17c-.27.92-.18,3.22,1.2,3.4s1.75-1.65,3.32-1.37c1.19.2.38,4.24,4.9,4.7,2.38.24,5.44-1.2,7.1-2.22s5.17-3.5,6.19-5.07a32.9,32.9,0,0,1,5.53.18c1.2.1,3.6-.45,3.6.38s-3.69,3.87-3.69,4.23,0,1.49,1.85,1.58c2.85.14,6.27-3.32,8.3-3.23,2.86.13-1.66,3.32,5.44,3.32s10-5.9,11.45-5.81c2.76.17-1.75,4.14,2.4,4.34,4.7.21,9.69-4.25,10.71-4.07s.18,1.76-.19,2.49a1.27,1.27,0,0,0,1.11,1.94c1.29.1,5.63-4.06,6.46-4s.56,1.21.56,2.4.92,1.21,1.66,1.48.92-.27,1.57-.65.55-1.11,0-1Z"/><path class="cls-1" d="M384.36,31.3a18.83,18.83,0,0,0,3.35-1.15l-.57-.9.2-.44S386,30,385.2,29.52s-.84,1.78-.84,1.78Z"/></g></g></svg>